<?xml version="1.0" encoding="UTF-8"?>
<svg version="1.1" xmlns="http://www.w3.org/2000/svg" width="327" height="361">
<path d="M0 0 C6.6 0 13.2 0 20 0 C33.07807225 3.9476645 46.15611973 7.89541101 59.234128 11.84328747 C65.31207689 13.67804307 71.39003509 15.51276782 77.46801758 17.34741211 C107.98084994 26.55776539 138.49218724 35.77303266 169 45 C169.99 45.66 170.98 46.32 172 47 C172 48.32 172 49.64 172 51 C171.34773438 51.51949219 170.69546875 52.03898437 170.0234375 52.57421875 C164.30237881 57.12879348 164.30237881 57.12879348 158.6875 61.8125 C156.22151428 63.81969768 153.77128654 65.45133987 151 67 C150.236875 67.763125 149.47375 68.52625 148.6875 69.3125 C146.79166667 71.20833333 144.89583333 73.10416667 143 75 C141.35 75.66 139.7 76.32 138 77 C136.515 77.99 136.515 77.99 135 79 C134.01 79 133.02 79 132 79 C131.34 80.32 130.68 81.64 130 83 C126.83047153 86.26008643 123.60062011 89.22237877 120 92 C119.01 92 118.02 92 117 92 C116.34 93.32 115.68 94.64 115 96 C113.35 96.66 111.7 97.32 110 98 C108.35 99.65 106.7 101.3 105 103 C103.02 104.32 101.04 105.64 99 107 C98.01 107.99 97.02 108.98 96 110 C95.01 110 94.02 110 93 110 C93 110.66 93 111.32 93 112 C85.85855848 117.96731671 78.59045205 123.61180677 71 129 C70.01 129.33 69.02 129.66 68 130 C65.03 127.03 62.06 124.06 59 121 C51.91315565 116.30611608 44.99422612 111.96082449 37 109 C32.04389363 107.47446989 27.03535708 106.24729029 22 105 C1.79445984 104.09818072 1.79445984 104.09818072 -14 109 C-23.76866734 113.88433367 -31.15716698 117.93280383 -39 125 C-46.37904259 132.62149685 -50.47550259 139.33212953 -56 149 C-56.639375 150.876875 -57.27875 152.75375 -57.9375 154.6875 C-58.29714844 155.74324219 -58.65679687 156.79898438 -59.02734375 157.88671875 C-60.14681558 161.27811278 -60.14681558 161.27811278 -61 166 C-61 173.92 -61 181.84 -61 190 C-56.82495791 206.41074435 -56.82495791 206.41074435 -50 218 C-50.66 219.32 -51.32 220.64 -52 222 C-57.22451046 226.63081609 -62.70622156 230.81840391 -68.328125 234.94921875 C-70.40516794 236.54344031 -72.22679762 238.08712757 -74 240 C-74.72316406 240.41121094 -75.44632812 240.82242188 -76.19140625 241.24609375 C-79.00276451 243.00172638 -81.412491 244.91877125 -83.9375 247.0625 C-90.37130445 252.406425 -97.14901746 257.20931294 -104 262 C-105.32 262 -106.64 262 -108 262 C-125.38521677 227.82948767 -137.28506967 192.37616531 -144.62109375 154.6875 C-146.20718455 146.11476329 -147.5163181 137.50481688 -148.75 128.875 C-148.85114105 128.16776794 -148.9522821 127.46053589 -149.05648804 126.73187256 C-149.6485319 122.54535954 -150.20533567 118.35551815 -150.72930908 114.15994263 C-150.91162076 112.70521053 -151.09818888 111.25100628 -151.28875732 109.79733276 C-153.04041406 96.27685868 -153.24139895 82.93227494 -153.125 69.3125 C-153.11493485 67.23112417 -153.10581534 65.14974355 -153.09765625 63.06835938 C-153.07595792 58.04545105 -153.04162968 53.02278103 -153 48 C-151.68 47.01 -150.36 46.02 -149 45 C-116.90410105 35.08330146 -84.7407769 25.39532645 -52.5625 15.75 C-51.54858437 15.44608212 -50.53466873 15.14216423 -49.49002838 14.82903671 C-38.41951444 11.51089853 -27.34846482 8.19455131 -16.27695751 4.87972927 C-10.85074138 3.25502876 -5.42508819 1.62846355 0 0 Z " fill="#22C9D7" transform="translate(153,0)"/>
<path d="M0 0 C0.66 0.66 1.32 1.32 2 2 C3.27922828 46.70082806 -3.66543419 92.87635924 -14.625 136.125 C-22.71578022 167.50618725 -34.20111061 197.72263498 -50.63378906 225.73632812 C-61.95121206 244.48814121 -76.0287951 261.06268404 -92 276 C-100.85803942 284.08724318 -110.90337406 290.57942962 -121 297 C-121.61246582 297.39106934 -122.22493164 297.78213867 -122.85595703 298.18505859 C-132.98912701 304.56348846 -143.84045099 308.77868166 -155 313 C-159.62 313 -164.24 313 -169 313 C-185.39989197 306.39108831 -201.06918756 298.99967885 -215.375 288.5 C-217.26344824 287.01696654 -219.13848076 285.51669743 -221 284 C-222.00804687 283.19433594 -223.01609375 282.38867188 -224.0546875 281.55859375 C-237.98129377 270.23839947 -250.38790625 257.46468261 -261 243 C-261.43006348 242.42540039 -261.86012695 241.85080078 -262.30322266 241.25878906 C-268.57893375 232.87090237 -273.99479656 224.19950799 -279 215 C-276.10469163 212.79642787 -273.15090237 210.68458133 -270.17822266 208.58691406 C-264.37709538 204.48701095 -258.72741223 200.27416684 -253.21484375 195.7890625 C-250.61393701 193.6881537 -247.94777456 191.6905701 -245.265625 189.6953125 C-237.66773091 184.00999175 -230.11400453 178.2867947 -223 172 C-222.01 172.33 -221.02 172.66 -220 173 C-217.36 176.3 -214.72 179.6 -212 183 C-205.85655242 188.71483495 -199.18410927 192.70434704 -192 197 C-179.48923458 201.93364796 -179.48923458 201.93364796 -172 203 C-170.12886684 203.07606897 -168.25546172 203.10817675 -166.3828125 203.09765625 C-164.85527344 203.09282227 -164.85527344 203.09282227 -163.296875 203.08789062 C-162.25015625 203.07951172 -161.2034375 203.07113281 -160.125 203.0625 C-158.52011719 203.05573242 -158.52011719 203.05573242 -156.8828125 203.04882812 C-147.80801845 203.00831565 -144.40436443 201.77449718 -134 199 C-118.18879503 191.82860042 -118.18879503 191.82860042 -107 182 C-100.14905304 173.4363163 -95.5569946 165.72882181 -91 156 C-88.98808919 151.06474228 -87.66198572 146.29588573 -87 141 C-86.88229855 137.04068452 -86.9057957 133.08559833 -86.9375 129.125 C-86.94426758 127.52011719 -86.94426758 127.52011719 -86.95117188 125.8828125 C-86.99168435 116.80801845 -88.22550282 113.40436443 -91 103 C-96.42952621 92.64475879 -96.42952621 92.64475879 -103 83 C-103 82.34 -103 81.68 -103 81 C-102.46632812 80.6596875 -101.93265625 80.319375 -101.3828125 79.96875 C-94.16556945 75.27379605 -86.98332711 70.23424083 -81 64 C-80.34 64 -79.68 64 -79 64 C-79 63.34 -79 62.68 -79 62 C-76.525 60.515 -76.525 60.515 -74 59 C-73.01 58.01 -72.02 57.02 -71 56 C-68.69 54.68 -66.38 53.36 -64 52 C-63.01 50.68 -62.02 49.36 -61 48 C-59.35 47.34 -57.7 46.68 -56 46 C-55.67 45.34 -55.34 44.68 -55 44 C-52.69 42.68 -50.38 41.36 -48 40 C-45.06799526 37.14723863 -42.35684596 34.34920216 -40 31 C-36 29 -32 27 -28 25 C-27.01 24.01 -26.02 23.02 -25 22 C-24.34 22 -23.68 22 -23 22 C-22.34 20.68 -21.68 19.36 -21 18 C-20.29875 17.50371094 -19.5975 17.00742188 -18.875 16.49609375 C-12.97183059 12.26923196 -7.3521689 7.90743281 -2 3 C-1.34 3 -0.68 3 0 3 C0 2.01 0 1.02 0 0 Z " fill="#9E2EDC" transform="translate(325,48)"/>
<path d="M0 0 C18 5 18 5 33 13 C40.49218452 19.64079992 46.95284384 25.97588894 53 34 C61 50 61 50 64 62 C64 86.43373494 64 86.43373494 61 97 C58.48555975 104.26700865 55.21274721 110.89010523 50.98046875 117.30859375 C47.63830489 121.85050874 43.86489299 125.89726744 40 130 C24.95431472 140.41624365 24.95431472 140.41624365 16 144 C11.05658848 145.56101359 6.03222649 146.75348518 1 148 C-22 148 -22 148 -35 145 C-52.79962193 136.10018904 -52.79962193 136.10018904 -61 129 C-68.36996659 121.38185005 -72.48387221 114.65322364 -78 105 C-78.804375 102.793125 -79.60875 100.58625 -80.4375 98.3125 C-80.68943115 97.62712158 -80.9413623 96.94174316 -81.20092773 96.2355957 C-82.44320166 92.79126771 -83.27635765 89.61821174 -84 86 C-84 62 -84 62 -81 50 C-75.71312626 39.42625252 -72.0839076 32.48836928 -65 24 C-59.80396966 18.47375465 -54.37932206 14.1292511 -48 10 C-32.03484 1.38180473 -18.48402569 0 0 0 Z M-35 23 C-37.97 23.99 -40.94 24.98 -44 26 C-52.14462031 31.65652678 -52.14462031 31.65652678 -58 39 C-58.474375 40.093125 -58.94875 41.18625 -59.4375 42.3125 C-59.70433594 42.92738281 -59.97117187 43.54226562 -60.24609375 44.17578125 C-60.89961942 45.75711021 -61.45891802 47.37675406 -62 49 C-62 53.95 -62 58.9 -62 64 C-60.68 67.3 -59.36 70.6 -58 74 C-55.03 77.3 -52.06 80.6 -49 84 C-46.834375 85.2065625 -46.834375 85.2065625 -44.625 86.4375 C-43.81289062 86.88996094 -43.00078125 87.34242188 -42.1640625 87.80859375 C-40.79003378 88.5650536 -39.40290739 89.29854631 -38 90 C-32.39 90.33 -26.78 90.66 -21 91 C-19.02 92.65 -17.04 94.3 -15 96 C-11.7 96.33 -8.4 96.66 -5 97 C-4.67 97.33 -4.34 97.66 -4 98 C-3.505 101.96 -3.505 101.96 -3 106 C-2.67 106.33 -2.34 106.66 -2 107 C0.97 107.66 3.94 108.32 7 109 C7.33 109.33 7.66 109.66 8 110 C8.495 113.96 8.495 113.96 9 118 C9.66 118.66 10.32 119.32 11 120 C18.59 120 26.18 120 34 120 C34 115.05 34 110.1 34 105 C32.68 103.35 31.36 101.7 30 100 C29.01 100 28.02 100 27 100 C26.34 98.35 25.68 96.7 25 95 C23.515 94.01 23.515 94.01 22 93 C21.67 92.01 21.34 91.02 21 90 C18.69 88.35 16.38 86.7 14 85 C13.52949219 84.45730469 13.05898437 83.91460937 12.57421875 83.35546875 C11.64029297 82.28232422 11.64029297 82.28232422 10.6875 81.1875 C9.76517578 80.12595703 9.76517578 80.12595703 8.82421875 79.04296875 C7.26665665 77.29863261 5.67341125 75.63221959 4 74 C4 71.36 4 68.72 4 66 C4.33 65.01 4.66 64.02 5 63 C5 58.71 5 54.42 5 50 C4.01 47.03 3.02 44.06 2 41 C-0.31 38.03 -2.62 35.06 -5 32 C-13.60532389 25.69302969 -13.60532389 25.69302969 -23 23 C-26.96 23 -30.92 23 -35 23 Z " fill="#DFE3E3" transform="translate(175,104)"/>
<path d="M0 0 C3.63 1.32 7.26 2.64 11 4 C13.64 5.98 16.28 7.96 19 10 C21.31 13.3 23.62 16.6 26 20 C28 27 28 27 28 40 C27.67 40.99 27.34 41.98 27 43 C27 45.64 27 48.28 27 51 C27.59167969 51.59167969 28.18335938 52.18335938 28.79296875 52.79296875 C34.89648438 58.89648438 34.89648438 58.89648438 41 65 C42.485 65.99 42.485 65.99 44 67 C44.33 67.99 44.66 68.98 45 70 C46.65 71.65 48.3 73.3 50 75 C50 75.66 50 76.32 50 77 C51.98 77.495 51.98 77.495 54 78 C55.485 79.98 55.485 79.98 57 82 C57 86.95 57 91.9 57 97 C49.41 97 41.82 97 34 97 C33.34 96.34 32.68 95.68 32 95 C31.505 91.04 31.505 91.04 31 87 C29.515 86.01 29.515 86.01 28 85 C25.69 84.67 23.38 84.34 21 84 C20.67 83.67 20.34 83.34 20 83 C19.505 79.04 19.505 79.04 19 75 C18.67 74.67 18.34 74.34 18 74 C14.7 73.67 11.4 73.34 8 73 C6.02 71.35 4.04 69.7 2 68 C-3.61 67.67 -9.22 67.34 -15 67 C-23 63 -23 63 -33 54 C-37.875 44.375 -37.875 44.375 -39 41 C-39 36.05 -39 31.1 -39 26 C-38.01 23.36 -37.02 20.72 -36 18 C-31.86384825 12.485131 -29.08357291 9.00018852 -24 5 C-22.35581617 3.96344932 -20.69669715 2.94815429 -19 2 C-12 0 -12 0 0 0 Z M-18 15 C-19.32 16.32 -20.64 17.64 -22 19 C-22 20.65 -22 22.3 -22 24 C-20.35 25.65 -18.7 27.3 -17 29 C-15.35 29 -13.7 29 -12 29 C-10.35 27.35 -8.7 25.7 -7 24 C-7 22.35 -7 20.7 -7 19 C-8.32 17.68 -9.64 16.36 -11 15 C-13.31 15 -15.62 15 -18 15 Z " fill="#FC8106" transform="translate(152,127)"/>
<path d="M0 0 C2.31 0 4.62 0 7 0 C8.32 1.32 9.64 2.64 11 4 C11 5.65 11 7.3 11 9 C9.35 10.65 7.7 12.3 6 14 C3.69 13.67 1.38 13.34 -1 13 C-1.99 11.68 -2.98 10.36 -4 9 C-4 7.35 -4 5.7 -4 4 C-2.68 2.68 -1.36 1.36 0 0 Z " fill="#F3C8B3" transform="translate(134,142)"/>
</svg>
