<?xml version="1.0" standalone="no"?>
<!DOCTYPE svg PUBLIC "-//W3C//DTD SVG 20010904//EN"
 "http://www.w3.org/TR/2001/REC-SVG-20010904/DTD/svg10.dtd">
<svg version="1.0" xmlns="http://www.w3.org/2000/svg"
 width="180.000000pt" height="180.000000pt" viewBox="0 0 180.000000 180.000000"
 preserveAspectRatio="xMidYMid meet">

<g transform="translate(0.000000,180.000000) scale(0.100000,-0.100000)"
fill="#000000" stroke="none">
<path d="M228 1786 c-105 -38 -180 -112 -212 -211 -15 -45 -16 -121 -14 -695
l3 -645 24 -50 c32 -63 92 -124 156 -155 l50 -25 665 0 665 0 50 24 c63 32
124 92 155 156 l25 50 0 665 0 665 -25 50 c-30 61 -94 125 -157 156 l-48 24
-650 2 c-518 2 -657 0 -687 -11z m481 -465 c34 -11 93 -38 131 -60 l70 -42 68
40 c71 42 175 81 216 81 41 0 105 -30 126 -60 47 -66 32 -167 -46 -302 l-44
-78 45 -77 c60 -105 84 -195 66 -254 -38 -128 -168 -140 -353 -33 l-78 44 -77
-45 c-105 -60 -195 -84 -254 -66 -128 38 -140 168 -33 354 l45 78 -42 69 c-43
73 -79 173 -79 218 0 15 9 46 20 70 15 33 29 47 62 62 54 25 81 25 157 1z"/>
<path d="M582 1260 c-29 -12 -44 -53 -36 -99 8 -44 46 -132 73 -170 l21 -29
102 105 c118 119 117 110 3 163 -68 32 -130 43 -163 30z"/>
<path d="M1160 1263 c-38 -8 -142 -58 -165 -79 -21 -19 -21 -19 86 -122 l106
-103 42 84 c48 93 60 173 31 201 -17 18 -63 26 -100 19z"/>
<path d="M793 1017 c-57 -57 -103 -110 -103 -120 0 -23 197 -217 220 -217 23
0 220 194 220 217 0 20 -200 223 -220 223 -8 0 -60 -46 -117 -103z"/>
<path d="M606 788 c-61 -104 -78 -200 -43 -235 27 -28 104 -21 179 15 116 55
116 45 0 161 -55 55 -103 101 -106 101 -3 0 -16 -19 -30 -42z"/>
<path d="M1073 725 l-102 -103 82 -42 c96 -48 173 -59 204 -27 30 30 21 104
-24 194 -21 42 -42 78 -48 79 -5 1 -56 -44 -112 -101z"/>
</g>
</svg>
